# xmcd
#
# Track frame offsets: 
#        150
#        17013
#        33399
#        50687
#        67478
#        85082
#        100140
#        117165
#        136373
#        155292
#        171922
#        200404
#
# Disc length: 4387 seconds
#
# Revision: 0
# Processed by: cddbd v1.5.2PL0 Copyright (c) Steve Scherf et al.
# Submitted via: ExactAudioCopy v0.99pb5
#
DISCID=a311210c
DTITLE=Rascal Flatts - Nothing Like This
DYEAR=2010
DGENRE=Country
TTITLE0=Why Wait
TTITLE1=Easy
TTITLE2=Sunday Afternoon
TTITLE3=Play
TTITLE4=Nothing Like This
TTITLE5=All Night To Get There
TTITLE6=Red Camaro
TTITLE7=They Try
TTITLE8=Summer Young
TTITLE9=Tonight Tonight
TTITLE10=I Won't Let Go
TTITLE11=Data
EXTD=
EXTT0=
EXTT1=
EXTT2=
EXTT3=
EXTT4=
EXTT5=
EXTT6=
EXTT7=
EXTT8=
EXTT9=
EXTT10=
EXTT11=
PLAYORDER=
